<?xml version="1.0" encoding="UTF-8" standalone="no"?>
<!-- Created with Inkscape (http://www.inkscape.org/) -->

<svg
   width="103.47854mm"
   height="21.960417mm"
   viewBox="0 0 103.47854 21.960417"
   version="1.1"
   id="svg5"
   inkscape:version="1.1.2 (0a00cf5, 2022-02-04)"
   sodipodi:docname="telescope.svg"
   xmlns:inkscape="http://www.inkscape.org/namespaces/inkscape"
   xmlns:sodipodi="http://sodipodi.sourceforge.net/DTD/sodipodi-0.dtd"
   xmlns="http://www.w3.org/2000/svg"
   xmlns:svg="http://www.w3.org/2000/svg">
  <sodipodi:namedview
     id="namedview7"
     pagecolor="#505050"
     bordercolor="#eeeeee"
     borderopacity="1"
     inkscape:pageshadow="0"
     inkscape:pageopacity="0"
     inkscape:pagecheckerboard="0"
     inkscape:document-units="mm"
     showgrid="false"
     fit-margin-top="0"
     fit-margin-left="0"
     fit-margin-right="0"
     fit-margin-bottom="0"
     inkscape:zoom="1.7058455"
     inkscape:cx="241.52246"
     inkscape:cy="10.551952"
     inkscape:window-width="1920"
     inkscape:window-height="1109"
     inkscape:window-x="0"
     inkscape:window-y="0"
     inkscape:window-maximized="1"
     inkscape:current-layer="g83" />
  <defs
     id="defs2">
    <rect
       x="91.740311"
       y="18.869336"
       width="273.90924"
       height="44.141682"
       id="rect8377" />
  </defs>
  <g
     inkscape:label="Warstwa 1"
     inkscape:groupmode="layer"
     id="layer1"
     transform="translate(-51.869179,-126.95356)">
    <g
       id="g83"
       transform="matrix(0.26458333,0,0,0.26458333,51.869179,126.95356)"
       style="display:inline">
      <path
         class="st0"
         d="M 41.5,83 C 30.4,83 20,78.7 12.2,70.8 4.3,63 0,52.6 0,41.5 0,30.6 4.4,19.9 12.2,12.2 20,4.3 30.4,0 41.5,0 52.6,0 63,4.3 70.8,12.2 78.7,20 83,30.4 83,41.5 83,52.6 78.7,63 70.8,70.8 63,78.7 52.6,83 41.5,83 Z m 14,-26 C 54.1,57 53,58.1 53,59.5 53,60.9 54.1,62 55.5,62 56.9,62 58,60.9 58,59.5 58,58.1 56.9,57 55.5,57 Z m -34,-4 c -0.3,0 -0.5,0.2 -0.5,0.5 0,0.3 0.2,0.5 0.5,0.5 h 2 c 3,0 5.5,2.5 5.5,5.5 v 2 c 0,0.3 0.2,0.5 0.5,0.5 0.3,0 0.5,-0.2 0.5,-0.5 v -2 c 0,-3 2.5,-5.5 5.5,-5.5 h 2 C 37.8,54 38,53.8 38,53.5 38,53.2 37.8,53 37.5,53 h -2 C 32.5,53 30,50.5 30,47.5 v -2 C 30,45.2 29.8,45 29.5,45 29.2,45 29,45.2 29,45.5 v 2 c 0,3 -2.5,5.5 -5.5,5.5 z m 17,-24 c -0.8,0 -1.5,0.7 -1.5,1.5 0,0.8 0.7,1.5 1.5,1.5 h 3 c 4.1,0 7.5,3.4 7.5,7.5 v 3 c 0,0.8 0.7,1.5 1.5,1.5 0.8,0 1.5,-0.7 1.5,-1.5 v -3 C 52,35.4 55.4,32 59.5,32 h 3 C 63.3,32 64,31.3 64,30.5 64,29.7 63.3,29 62.5,29 h -3 C 55.4,29 52,25.6 52,21.5 v -3 C 52,17.7 51.3,17 50.5,17 49.7,17 49,17.7 49,18.5 v 3 c 0,4.1 -3.4,7.5 -7.5,7.5 z m -16,-4 C 21.7,25 21,25.7 21,26.5 21,27.3 21.7,28 22.5,28 23.3,28 24,27.3 24,26.5 24,25.7 23.3,25 22.5,25 Z"
         id="path65" />
      <path
         d="m 1.5,41.5 c 0,-10.6 4.2,-20.8 11.7,-28.3 15.6,-15.6 40.9,-15.6 56.6,0 15.7,15.6 15.6,40.9 0,56.6 C 54.2,85.5 28.9,85.4 13.2,69.8 5.7,62.3 1.5,52.1 1.5,41.5 Z m 34,10 c -2.2,0 -4,-1.8 -4,-4 v -2 c 0,-1.1 -0.9,-2 -2,-2 -1.1,0 -2,0.9 -2,2 v 2 c 0,2.2 -1.8,4 -4,4 h -2 c -1.1,0 -2,0.9 -2,2 0,1.1 0.9,2 2,2 h 2 c 2.2,0 4,1.8 4,4 v 2 c 0,1.1 0.9,2 2,2 1.1,0 2,-0.9 2,-2 v -2 c 0,-2.2 1.8,-4 4,-4 h 2 c 1.1,0 2,-0.9 2,-2 0,-1.1 -0.9,-2 -2,-2 z m 24,-24 c -3.3,0 -6,-2.7 -6,-6 v -3 c 0,-1.7 -1.3,-3 -3,-3 -1.7,0 -3,1.3 -3,3 v 3 c 0,3.3 -2.7,6 -6,6 h -3 c -1.7,0 -3,1.3 -3,3 0,1.7 1.3,3 3,3 h 3 c 3.3,0 6,2.7 6,6 v 3 c 0,1.7 1.3,3 3,3 1.7,0 3,-1.3 3,-3 v -3 c 0,-3.3 2.7,-6 6,-6 h 3 c 1.7,0 3,-1.3 3,-3 0,-1.7 -1.3,-3 -3,-3 z m -4,36 c 2.2,0 4,-1.8 4,-4 0,-2.2 -1.8,-4 -4,-4 -2.2,0 -4,1.8 -4,4 0,2.2 1.8,4 4,4 z m -33,-34 c 1.7,0 3,-1.3 3,-3 0,-1.7 -1.3,-3 -3,-3 -1.7,0 -3,1.3 -3,3 0,1.7 1.3,3 3,3 z"
         fill="#4040c8"
         id="path67"
         style="display:inline" />
      <g
         id="g2279"
         style="display:none">
        <path
           class="st0"
           d="m 208.6,24.5 v 13.9 c -0.5,-1.2 -1.1,-2.3 -1.9,-3.2 -1.9,-2.1 -4.5,-3.1 -7.6,-3.1 h -0.2 c -1.9,0 -3.8,0.5 -5.5,1.5 -1.3,0.8 -2.3,1.8 -3.2,3 l 1.4,-4.2 H 182 l -2,7.3 -2,-7.3 h -9.6 l 0.9,2.7 c -0.3,-0.3 -0.5,-0.6 -0.8,-0.8 -1.7,-1.5 -4.1,-2.2 -6.8,-2.2 h -0.2 c -1.7,0 -3.3,0.3 -4.8,0.9 -1,0.4 -1.9,1 -2.7,1.7 v -1.9 l -1.4,-0.4 c -0.7,-0.2 -1.4,-0.3 -2.2,-0.3 -0.7,0 -1.6,0.1 -2.5,0.5 v -0.1 h -8.7 v 7 c -0.3,-2.1 -1.2,-3.9 -2.7,-5.1 -1.7,-1.5 -4.1,-2.2 -6.8,-2.2 h -0.2 c -1.7,0 -3.3,0.3 -4.8,0.9 -1.5,0.6 -2.8,1.6 -3.8,2.9 -0.9,1.3 -1.4,2.7 -1.4,4.2 v 2 h 2.3 c -1.5,1.3 -2.4,3 -2.6,5.1 H 110 V 25.9 h -9.3 v 29.6 h 20.5 v -2.2 c 0.1,0.1 0.3,0.3 0.5,0.4 1.6,1.4 3.6,2.1 5.9,2.1 h 0.3 c 1.3,0 2.5,-0.3 3.6,-0.8 l 0.2,0.5 h 16.6 V 41.6 c 0.2,-0.2 0.7,-0.5 1.8,-0.5 0.4,0 0.9,0 1.4,0.1 v 1 h 2.2 c -1.8,1.4 -2.7,3.5 -2.7,5.9 0,2.2 0.9,4.2 2.5,5.6 1.6,1.4 3.6,2.1 5.9,2.1 h 0.3 c 1.3,0 2.5,-0.3 3.6,-0.8 l 0.2,0.5 h 8.4 v -2.8 l -0.2,-0.4 c -0.2,-0.4 -0.5,-1.2 -0.5,-3.2 V 41 l 4.9,14.5 h 7.7 l 4.4,-13 c 0,0.5 -0.1,0.9 -0.1,1.4 v 0.5 c 0,3.4 1.1,6.2 3.2,8.3 2.1,2.1 4.9,3.1 8.2,3.1 1.9,0 3.6,-0.4 5.1,-1.1 1.5,-0.7 2.8,-1.7 3.8,-3.1 v 3.8 h 9.1 v -31 h -8.9 z m -1.4,23.1 h 1.3 v 1.5 z M 248.8,26.4 H 226 v 5.8 h 8.2 V 55 h 6.4 V 32.2 h 8.2 z m 12,21.3 c -0.5,0.6 -1,1.1 -1.7,1.5 -0.6,0.3 -1.3,0.5 -2.2,0.5 h -0.1 c -1,0 -2,-0.4 -2.8,-1.2 -0.5,-0.6 -0.9,-1.2 -1.1,-2 h 12.7 v -2.8 c 0,-3.4 -0.8,-6.1 -2.4,-8 -1.7,-2 -4,-3 -6.9,-3 -1.8,0 -3.5,0.5 -5,1.5 -1.5,1 -2.8,2.4 -3.6,4.1 -0.8,1.7 -1.2,3.6 -1.2,5.7 v 0.6 c 0,3.2 1,5.8 2.8,7.8 1.8,1.9 4.4,3 7.1,3 h 0.3 c 3.7,0 6.6,-1.5 8.4,-4.4 l 0.7,-1.2 -4.2,-3.3 z m -6.6,-8.5 c 0.6,-0.6 1.3,-0.9 2.3,-1 h 0.1 c 0.7,0 1.4,0.3 1.9,0.8 0.4,0.5 0.7,1.1 0.8,1.7 h -6 c 0.2,-0.6 0.5,-1.1 0.9,-1.5 z m 86.7,-6.6 c -1.9,0 -3.7,0.5 -5.3,1.4 -1.6,1 -2.8,2.4 -3.6,4.1 -0.5,1 -0.8,2.1 -1,3.2 V 41 c 0,-2.3 -1,-4.5 -2.8,-6.1 -1.7,-1.5 -3.8,-2.3 -6.3,-2.3 h -0.2 c -1.8,0 -3.5,0.5 -5.1,1.4 -1.5,1 -2.7,2.4 -3.5,4 -0.8,1.6 -1.2,3.5 -1.2,5.6 v 0.5 c 0,3.4 0.9,6.1 2.7,8.1 1.8,2 4.3,3.1 7.3,3.1 h 0.1 c 3,0 5.8,-1.4 7.6,-3.8 0.8,-1.1 1.3,-2.5 1.4,-3.9 v -0.7 c 0.4,2 1.2,3.8 2.5,5.2 1.8,2 4.4,3.2 7.1,3.2 h 0.6 c 3.7,0 7.1,-2.2 8.7,-5.5 0.8,-1.7 1.2,-3.6 1.2,-5.6 V 44 c 0,-3.3 -0.9,-6.1 -2.8,-8.1 -1.9,-2.2 -4.4,-3.3 -7.4,-3.3 z M 325,46 l -0.1,1.4 c -0.1,0.6 -0.4,1.2 -0.9,1.6 -0.6,0.5 -1.3,0.7 -2.1,0.7 v 1.4 l -0.1,-1.4 h -0.2 c -0.9,0 -1.9,-0.4 -2.4,-1.2 -0.7,-0.9 -1,-2.3 -1,-4.1 v -0.6 c 0,-1.9 0.4,-3.3 1,-4.2 0.6,-0.8 1.5,-1.2 2.7,-1.2 h 0.1 c 0.7,0 1.4,0.3 2,0.8 0.6,0.5 0.9,1.2 0.9,2 l 0.1,1.4 h 5.8 V 44 c 0,0.7 0,1.3 0.1,2 z m 18.7,2.3 c -0.7,0.9 -1.6,1.3 -2.7,1.3 h -0.1 c -1,0 -2,-0.5 -2.6,-1.3 -0.8,-1 -1.2,-2.4 -1.2,-4.2 0,-2 0.4,-3.6 1.2,-4.6 0.7,-0.9 1.6,-1.3 2.7,-1.3 h 0.1 c 1,0 2,0.5 2.6,1.4 0.8,1 1.2,2.4 1.2,4.2 -0.1,2 -0.4,3.5 -1.2,4.5 z M 266.7,25 h 6.2 v 30 h -6.2 z m 95.7,7.6 H 362 c -1.4,0 -2.7,0.3 -3.9,1 V 33 h -5.9 v 29.3 h 6.2 v -7.7 c 1.1,0.5 2.5,0.8 3.9,0.8 h 0.2 c 2.5,0 4.9,-1.2 6.4,-3.3 1.5,-2 2.3,-4.7 2.3,-7.9 v -0.3 c 0,-3.4 -0.8,-6.1 -2.3,-8.1 -1.6,-2.1 -3.8,-3.2 -6.5,-3.2 z m 1.5,15.9 c -0.5,0.8 -1.4,1.2 -2.4,1.2 h -0.2 c -1.1,0 -2.2,-0.6 -2.8,-1.5 v -8.3 c 0.7,-1.1 1.6,-1.5 3,-1.5 h 0.1 c 0.9,0 1.8,0.5 2.4,1.3 0.7,1 1.1,2.4 1.1,4.2 -0.1,2 -0.5,3.6 -1.2,4.6 z m 22.8,-2 -0.9,1.2 c -0.5,0.6 -1.1,1.1 -1.7,1.5 -0.6,0.3 -1.3,0.5 -2.2,0.5 h -0.1 c -1,0 -2,-0.4 -2.7,-1.2 -0.5,-0.6 -0.9,-1.2 -1.1,-2 h 12.7 v -2.8 c 0,-3.4 -0.8,-6.1 -2.4,-8 -1.7,-2 -4,-3 -6.9,-3 -1.8,0 -3.5,0.5 -5,1.5 -1.5,1 -2.8,2.4 -3.5,4.1 -0.8,1.7 -1.2,3.6 -1.2,5.7 v 0.6 c 0,3.2 1,5.8 2.8,7.8 1.8,1.9 4.4,3 7.1,3 h 0.3 c 3.7,0 6.5,-1.5 8.4,-4.3 l 0.8,-1.2 z m -5.3,-8.2 h 0.1 c 0.7,0 1.4,0.3 1.9,0.8 0.4,0.5 0.7,1.1 0.8,1.7 h -6 c 0.2,-0.6 0.5,-1.1 0.9,-1.5 0.7,-0.7 1.4,-1 2.3,-1 m -73.6,4.2 c -0.7,-0.3 -1.4,-0.6 -2.3,-0.9 h 5.9 v -1.5 c 0,-2.1 -0.9,-4.2 -2.6,-5.5 -1.6,-1.3 -3.7,-2 -6.1,-2 h -0.4 c -2,0 -4,0.7 -5.7,2 -1.7,1.3 -2.5,3.1 -2.5,5.1 0,1.2 0.3,2.3 1,3.4 0.7,1 1.6,1.7 2.7,2.2 1.4,0.6 2.8,1.1 4.2,1.4 1.9,0.4 2.6,0.8 2.9,1 0.2,0.2 0.4,0.5 0.4,0.8 0,0.3 -0.1,0.5 -0.4,0.7 -0.5,0.3 -1.2,0.5 -2.1,0.5 -1,0 -1.8,-0.2 -2.3,-0.6 -0.5,-0.4 -0.7,-0.8 -0.7,-1.5 l -0.1,-1.4 h -6.1 v -2.6 c 0,-3.4 -0.8,-6.1 -2.4,-8 -1.7,-2 -4,-3 -6.9,-3 -1.8,0 -3.5,0.5 -5,1.5 -1.5,1 -2.8,2.4 -3.6,4.1 -0.8,1.7 -1.2,3.6 -1.2,5.7 v 0.6 c 0,3.2 1,5.8 2.8,7.8 1.8,1.9 4.4,3 7.1,3 h 0.3 c 3.7,0 6.5,-1.5 8.4,-4.3 l 0.8,-1.2 -4.2,-3.3 -0.9,1.2 c -0.5,0.6 -1.1,1.1 -1.7,1.5 -0.6,0.3 -1.3,0.5 -2.2,0.5 h -0.1 c -1,0 -2,-0.4 -2.8,-1.2 -0.5,-0.6 -0.9,-1.2 -1.1,-2 h 12.7 v 1.2 c 0,1.4 0.4,2.8 1.3,4 0.8,1.2 2,2.2 3.4,2.8 1.4,0.6 2.9,0.9 4.4,0.9 h 0.6 c 2.1,0 4.1,-0.6 5.8,-1.8 1.7,-1.3 2.6,-3.1 2.6,-5.3 0,-1.3 -0.3,-2.5 -1,-3.5 -0.8,-1 -1.7,-1.7 -2.9,-2.3 z m -2.7,-1 c -0.5,-0.1 -1.1,-0.3 -1.6,-0.4 -1.9,-0.4 -2.6,-0.8 -2.9,-0.9 -0.1,-0.1 -0.2,-0.2 -0.2,-0.5 0,-0.4 0.1,-0.6 0.4,-0.8 0.4,-0.3 1,-0.5 1.9,-0.5 h 0.2 c 0.6,0 1.3,0.2 1.7,0.6 0.5,0.5 0.6,0.9 0.6,1.2 v 1.3 z m -24,-0.8 c 0.2,-0.6 0.5,-1.1 0.9,-1.5 0.6,-0.6 1.3,-0.9 2.3,-1 h 0.1 c 0.7,0 1.4,0.3 1.9,0.8 0.4,0.5 0.7,1.1 0.8,1.7 z"
           id="path61"
           style="display:inline" />
        <path
           class="st1"
           d="m 247.3,30.7 h -8.2 v 22.8 h -3.4 V 30.7 h -8.2 v -2.8 h 19.8 z m 9.5,23.1 c -2.4,0.1 -4.7,-0.8 -6.3,-2.5 -1.6,-1.7 -2.4,-4 -2.4,-6.8 v -0.6 c 0,-1.9 0.4,-3.6 1.1,-5 0.7,-1.4 1.7,-2.6 3,-3.5 1.2,-0.8 2.7,-1.3 4.2,-1.3 2.5,0 4.4,0.8 5.8,2.4 1.4,1.6 2.1,4 2.1,7 v 1.3 h -12.9 c 0,1.9 0.6,3.4 1.6,4.5 1,1.1 2.5,1.8 4,1.7 1.2,0 2.1,-0.2 2.9,-0.7 0.8,-0.5 1.5,-1.1 2.1,-1.9 l 2,1.5 c -1.7,2.7 -4.1,3.9 -7.2,3.9 z m -0.4,-17 c -1.3,0 -2.4,0.5 -3.3,1.4 -0.9,1 -1.4,2.3 -1.7,4 h 9.5 V 42 c 0,-1.4 -0.5,-2.7 -1.3,-3.8 -0.8,-1 -2,-1.5 -3.2,-1.4 z m 15.1,16.7 h -3.2 v -27 h 3.2 z m 13.1,0.3 c -2.4,0.1 -4.7,-0.8 -6.3,-2.5 -1.6,-1.7 -2.4,-4 -2.4,-6.8 v -0.6 c 0,-1.9 0.4,-3.6 1.1,-5 0.7,-1.4 1.7,-2.6 3,-3.5 1.2,-0.8 2.7,-1.3 4.2,-1.3 2.5,0 4.4,0.8 5.8,2.4 1.4,1.6 2.1,4 2.1,7 v 1.3 h -12.9 c 0,1.9 0.6,3.4 1.6,4.5 1,1.1 2.5,1.8 4,1.7 1.1,0 2.1,-0.2 2.9,-0.7 0.8,-0.5 1.5,-1.1 2.1,-1.9 l 2,1.5 c -1.7,2.7 -4,3.9 -7.2,3.9 z m -0.4,-17 c -1.3,0 -2.4,0.5 -3.3,1.4 -0.9,1 -1.5,2.3 -1.7,4 h 9.5 V 42 c 0,-1.4 -0.5,-2.7 -1.3,-3.8 -0.8,-1 -2,-1.5 -3.2,-1.4 z m 22.6,11.7 c 0,-0.8 -0.3,-1.6 -1,-2 -0.7,-0.5 -1.8,-0.9 -3.5,-1.3 -1.4,-0.3 -2.7,-0.7 -3.9,-1.3 -0.9,-0.4 -1.6,-1 -2.1,-1.8 -0.5,-0.7 -0.7,-1.6 -0.7,-2.4 0,-1.6 0.7,-2.9 2,-4 1.4,-1.1 3.2,-1.7 5,-1.6 2.2,0 3.9,0.6 5.2,1.7 1.3,1 2,2.6 2,4.3 h -3.3 c 0,-0.9 -0.4,-1.7 -1.1,-2.3 -0.8,-0.7 -1.8,-1 -2.9,-1 -1.2,0 -2.1,0.3 -2.8,0.8 -0.7,0.5 -1,1.2 -1,2 0,0.8 0.3,1.4 0.9,1.8 0.6,0.4 1.8,0.8 3.4,1.1 1.6,0.4 2.9,0.8 4,1.3 1,0.5 1.8,1.1 2.2,1.8 0.5,0.7 0.7,1.6 0.7,2.6 0,1.7 -0.7,3.1 -2,4.1 -1.5,1.1 -3.4,1.6 -5.3,1.5 -1.4,0 -2.8,-0.2 -4,-0.8 -1.1,-0.5 -2.1,-1.3 -2.8,-2.3 -0.7,-1 -1,-2 -1,-3.1 h 3.3 c 0.1,1.1 0.5,2 1.3,2.6 0.8,0.6 1.9,1 3.2,1 1.2,0 2.2,-0.2 3,-0.8 0.8,-0.4 1.2,-1.1 1.2,-1.9 z m 15.1,2.7 c 1.2,0 2.2,-0.3 3,-1.1 0.8,-0.6 1.4,-1.6 1.4,-2.6 h 3.1 c -0.1,1.1 -0.5,2.2 -1.1,3.1 -1.5,2 -3.9,3.2 -6.4,3.2 -2.6,0 -4.7,-0.8 -6.2,-2.6 -1.5,-1.7 -2.3,-4.1 -2.3,-7.1 v -0.5 c 0,-1.8 0.4,-3.5 1,-4.9 0.6,-1.4 1.6,-2.6 2.9,-3.4 1.4,-0.8 2.9,-1.2 4.5,-1.2 2.1,0 3.9,0.7 5.3,1.9 1.4,1.3 2.2,3.1 2.3,5 h -3.1 c -0.1,-1.2 -0.6,-2.2 -1.4,-3 -0.8,-0.8 -1.9,-1.2 -3.1,-1.2 -1.6,0 -2.9,0.6 -3.8,1.8 -0.9,1.2 -1.4,2.9 -1.4,5.2 v 0.6 c 0,2.2 0.5,3.9 1.4,5.1 1,1.1 2.4,1.8 3.9,1.7 z m 10.4,-7.4 c 0,-1.9 0.4,-3.5 1.1,-5 0.7,-1.4 1.7,-2.6 3,-3.5 1.3,-0.8 2.8,-1.2 4.5,-1.2 2.6,0 4.7,0.9 6.3,2.7 1.6,1.8 2.4,4.2 2.4,7.2 v 0.2 c 0,1.8 -0.4,3.5 -1.1,5 -1.4,2.9 -4.4,4.8 -7.6,4.7 -2.4,0.1 -4.7,-0.9 -6.3,-2.7 -1.6,-1.8 -2.4,-4.2 -2.4,-7.1 z m 3.3,0.4 c 0,2.1 0.5,3.8 1.5,5.1 0.9,1.2 2.4,2 3.9,1.9 1.6,0 3,-0.7 3.9,-2 1,-1.3 1.5,-3.1 1.5,-5.4 0,-2.1 -0.5,-3.8 -1.5,-5.1 -0.9,-1.3 -2.4,-2 -3.9,-1.9 -1.6,0 -2.9,0.6 -3.9,1.9 -1.1,1.3 -1.6,3.1 -1.5,5.5 z m 34.2,0 c 0,2.9 -0.7,5.2 -2,7 -1.2,1.7 -3.3,2.7 -5.4,2.7 -2.3,0 -4.1,-0.7 -5.5,-2.2 v 9.2 h -3.2 V 34.5 h 3 l 0.2,2.1 c 1.3,-1.7 3.4,-2.6 5.5,-2.5 2.3,0 4.1,0.9 5.4,2.6 1.3,1.7 2,4.1 2,7.2 z m -3.3,-0.4 c 0,-2.1 -0.5,-3.8 -1.4,-5.1 -0.9,-1.2 -2.3,-1.9 -3.8,-1.9 -2,0 -3.5,0.9 -4.4,2.6 v 9.1 c 0.9,1.7 2.6,2.7 4.5,2.6 1.5,0 2.9,-0.7 3.7,-1.9 0.9,-1.1 1.4,-2.9 1.4,-5.4 z m 15.3,10 c -2.4,0.1 -4.7,-0.8 -6.3,-2.5 -1.6,-1.7 -2.4,-4 -2.4,-6.8 v -0.6 c 0,-1.9 0.4,-3.6 1.1,-5 0.7,-1.4 1.7,-2.6 3,-3.5 1.2,-0.8 2.7,-1.3 4.2,-1.3 2.5,0 4.4,0.8 5.8,2.4 1.4,1.6 2.1,4 2.1,7 v 1.3 h -12.9 c 0,1.9 0.6,3.4 1.6,4.5 1,1.1 2.5,1.8 4,1.7 1.1,0 2.1,-0.2 2.9,-0.7 0.8,-0.5 1.5,-1.1 2.1,-1.9 l 2,1.5 c -1.7,2.7 -4,3.9 -7.2,3.9 z m -0.4,-17 c -1.3,0 -2.4,0.5 -3.3,1.4 -0.9,1 -1.4,2.3 -1.6,4 H 386 V 42 c 0,-1.4 -0.5,-2.7 -1.3,-3.8 -0.9,-1 -2.1,-1.5 -3.3,-1.4 z"
           id="path63" />
        <path
           class="st1"
           d="m 108.1,49.3 h 11.2 v 4.2 H 102.8 V 27.9 h 5.3 z m 29.2,-0.2 v -8.2 c 0,-2.1 -0.7,-3.8 -2.1,-5 -1.4,-1.2 -3.2,-1.8 -5.6,-1.8 -1.4,0 -2.9,0.2 -4.2,0.8 -1.1,0.5 -2.1,1.2 -2.9,2.2 -0.7,0.9 -1,2 -1,3.1 h 5.1 c 0,-0.7 0.2,-1.3 0.7,-1.7 0.5,-0.4 1.2,-0.6 2,-0.6 1,0 1.7,0.3 2.1,0.8 0.5,0.5 0.7,1.2 0.7,2.1 v 1.1 h -2.3 c -2.8,0 -5,0.6 -6.5,1.6 -1.5,1.1 -2.2,2.6 -2.2,4.6 0,1.6 0.6,3.1 1.8,4.1 1.2,1.1 2.8,1.6 4.6,1.6 1.8,0.1 3.6,-0.7 4.8,-2 0.1,0.6 0.2,1.2 0.5,1.7 h 5.1 v -0.3 c -0.3,-0.9 -0.5,-2.3 -0.6,-4.1 z m -5.1,-1 c -0.3,0.6 -0.8,1 -1.4,1.3 -0.6,0.3 -1.3,0.5 -2.1,0.5 -0.7,0 -1.3,-0.2 -1.8,-0.6 -0.5,-0.4 -0.7,-0.9 -0.7,-1.6 v -0.3 c 0.2,-1.8 1.5,-2.6 4.1,-2.6 h 1.9 z m 19.7,-8.9 c -0.7,-0.1 -1.3,-0.1 -1.8,-0.1 -1.9,0 -3.2,0.7 -3.8,2 v 12.4 h -5.1 v -19 h 4.8 l 0.1,2.3 c 1,-1.8 2.4,-2.6 4.2,-2.6 0.6,0 1.1,0.1 1.6,0.2 z m 17.4,9.9 v -8.2 c 0,-2.1 -0.7,-3.8 -2.1,-5 -1.4,-1.2 -3.2,-1.8 -5.6,-1.8 -1.4,0 -2.9,0.3 -4.2,0.8 -1.1,0.5 -2.1,1.2 -2.9,2.2 -0.7,0.9 -1,2 -1,3.1 h 5.1 c 0,-0.7 0.2,-1.3 0.7,-1.7 0.5,-0.4 1.1,-0.6 2,-0.6 1,0 1.7,0.3 2.1,0.8 0.4,0.5 0.7,1.2 0.7,2.1 v 1.1 h -2.3 c -2.8,0 -5,0.6 -6.5,1.6 -1.5,1.1 -2.2,2.6 -2.2,4.6 0,1.6 0.6,3.1 1.8,4.1 1.2,1.1 2.8,1.6 4.6,1.6 1.8,0.1 3.6,-0.7 4.8,-2 0.1,0.6 0.2,1.2 0.5,1.7 h 5.1 v -0.3 c -0.4,-0.9 -0.6,-2.3 -0.6,-4.1 z m -5.1,-1 c -0.3,0.6 -0.8,1 -1.4,1.3 -0.6,0.3 -1.3,0.5 -2.1,0.5 -0.7,0 -1.3,-0.2 -1.8,-0.6 -0.4,-0.4 -0.7,-0.9 -0.7,-1.6 v -0.3 c 0.2,-1.8 1.5,-2.6 4.1,-2.6 h 1.9 z m 15.8,-0.8 3.5,-12.8 h 5.3 l -6.3,19 h -4.9 l -6.4,-19 h 5.3 z m 27.4,-3.7 c 0,-3 -0.7,-5.3 -2.2,-7 -1.5,-1.6 -3.5,-2.5 -6.1,-2.5 -1.6,0 -3.2,0.4 -4.6,1.2 -1.4,0.8 -2.5,2 -3.1,3.5 -0.7,1.5 -1.1,3.2 -1.1,5.1 v 0.5 c 0,2.8 0.9,5.1 2.6,6.8 1.8,1.7 4,2.6 6.8,2.6 1.6,0 3,-0.3 4.3,-0.9 1.2,-0.5 2.3,-1.4 3.1,-2.5 l -2.5,-2.8 c -1.1,1.4 -2.6,2.1 -4.6,2.1 -1.2,0 -2.3,-0.4 -3.1,-1.1 -0.8,-0.8 -1.4,-1.9 -1.5,-3 h 12.1 v -2 z m -5,-1.4 h -7.1 c 0.1,-1.1 0.5,-2.1 1.2,-2.9 0.6,-0.7 1.5,-1 2.5,-1 1.1,0 1.9,0.3 2.5,0.9 0.6,0.6 0.9,1.5 0.9,2.6 z m 8.2,-15.7 h 5.1 v 27 h -5.1 z"
           id="path69"
           style="display:inline" />
        <path
           class="st1"
           d="m 108.1,49.3 h 11.2 v 4.2 H 102.8 V 27.9 h 5.3 z m 29.2,-0.2 v -8.2 c 0,-2.1 -0.7,-3.8 -2.1,-5 -1.4,-1.2 -3.2,-1.8 -5.6,-1.8 -1.4,0 -2.9,0.2 -4.2,0.8 -1.1,0.5 -2.1,1.2 -2.9,2.2 -0.7,0.9 -1,2 -1,3.1 h 5.1 c 0,-0.7 0.2,-1.3 0.7,-1.7 0.5,-0.4 1.2,-0.6 2,-0.6 1,0 1.7,0.3 2.1,0.8 0.5,0.5 0.7,1.2 0.7,2.1 v 1.1 h -2.3 c -2.8,0 -5,0.6 -6.5,1.6 -1.5,1.1 -2.2,2.6 -2.2,4.6 0,1.6 0.6,3.1 1.8,4.1 1.2,1.1 2.8,1.6 4.6,1.6 1.8,0.1 3.6,-0.7 4.8,-2 0.1,0.6 0.2,1.2 0.5,1.7 h 5.1 v -0.3 c -0.3,-0.9 -0.5,-2.3 -0.6,-4.1 z m -5.1,-1 c -0.3,0.6 -0.8,1 -1.4,1.3 -0.6,0.3 -1.3,0.5 -2.1,0.5 -0.7,0 -1.3,-0.2 -1.8,-0.6 -0.5,-0.4 -0.7,-0.9 -0.7,-1.6 v -0.3 c 0.2,-1.8 1.5,-2.6 4.1,-2.6 h 1.9 z m 19.7,-8.9 c -0.7,-0.1 -1.3,-0.1 -1.8,-0.1 -1.9,0 -3.2,0.7 -3.8,2 v 12.4 h -5.1 v -19 h 4.8 l 0.1,2.3 c 1,-1.8 2.4,-2.6 4.2,-2.6 0.6,0 1.1,0.1 1.6,0.2 z m 17.4,9.9 v -8.2 c 0,-2.1 -0.7,-3.8 -2.1,-5 -1.4,-1.2 -3.2,-1.8 -5.6,-1.8 -1.4,0 -2.9,0.3 -4.2,0.8 -1.1,0.5 -2.1,1.2 -2.9,2.2 -0.7,0.9 -1,2 -1,3.1 h 5.1 c 0,-0.7 0.2,-1.3 0.7,-1.7 0.5,-0.4 1.1,-0.6 2,-0.6 1,0 1.7,0.3 2.1,0.8 0.4,0.5 0.7,1.2 0.7,2.1 v 1.1 h -2.3 c -2.8,0 -5,0.6 -6.5,1.6 -1.5,1.1 -2.2,2.6 -2.2,4.6 0,1.6 0.6,3.1 1.8,4.1 1.2,1.1 2.8,1.6 4.6,1.6 1.8,0.1 3.6,-0.7 4.8,-2 0.1,0.6 0.2,1.2 0.5,1.7 h 5.1 v -0.3 c -0.4,-0.9 -0.6,-2.3 -0.6,-4.1 z m -5.1,-1 c -0.3,0.6 -0.8,1 -1.4,1.3 -0.6,0.3 -1.3,0.5 -2.1,0.5 -0.7,0 -1.3,-0.2 -1.8,-0.6 -0.4,-0.4 -0.7,-0.9 -0.7,-1.6 v -0.3 c 0.2,-1.8 1.5,-2.6 4.1,-2.6 h 1.9 z m 15.8,-0.8 3.5,-12.8 h 5.3 l -6.3,19 h -4.9 l -6.4,-19 h 5.3 z m 27.4,-3.7 c 0,-3 -0.7,-5.3 -2.2,-7 -1.5,-1.6 -3.5,-2.5 -6.1,-2.5 -1.6,0 -3.2,0.4 -4.6,1.2 -1.4,0.8 -2.5,2 -3.1,3.5 -0.7,1.5 -1.1,3.2 -1.1,5.1 v 0.5 c 0,2.8 0.9,5.1 2.6,6.8 1.8,1.7 4,2.6 6.8,2.6 1.6,0 3,-0.3 4.3,-0.9 1.2,-0.5 2.3,-1.4 3.1,-2.5 l -2.5,-2.8 c -1.1,1.4 -2.6,2.1 -4.6,2.1 -1.2,0 -2.3,-0.4 -3.1,-1.1 -0.8,-0.8 -1.4,-1.9 -1.5,-3 h 12.1 v -2 z m -5,-1.4 h -7.1 c 0.1,-1.1 0.5,-2.1 1.2,-2.9 0.6,-0.7 1.5,-1 2.5,-1 1.1,0 1.9,0.3 2.5,0.9 0.6,0.6 0.9,1.5 0.9,2.6 z m 8.2,-15.7 h 5.1 v 27 h -5.1 z"
           id="path1168"
           style="display:inline" />
      </g>
      <text
         xml:space="preserve"
         id="text8375"
         style="font-style:normal;font-weight:normal;font-size:40px;line-height:1.25;font-family:sans-serif;white-space:pre;shape-inside:url(#rect8377);display:inline;fill:#000000;fill-opacity:1;stroke:none" />
      <text
         xml:space="preserve"
         style="font-style:normal;font-variant:normal;font-weight:normal;font-stretch:normal;font-size:37.3333px;line-height:1.25;font-family:Kalimati;-inkscape-font-specification:Kalimati;letter-spacing:-0.16px;word-spacing:-4.43px;display:inline;fill:#000000;fill-opacity:1;stroke:none;stroke-width:3.64724;stroke-linejoin:miter;stroke-miterlimit:4;stroke-dasharray:none"
         x="89.60173"
         y="53.876064"
         id="text28051"><tspan
           sodipodi:role="line"
           id="tspan28049"
           x="89.60173"
           y="53.876064"
           style="font-style:normal;font-variant:normal;font-weight:normal;font-stretch:normal;font-size:37.3333px;font-family:Loma;-inkscape-font-specification:Loma;stroke:#ffffff;stroke-width:3.64724;stroke-linejoin:miter;stroke-miterlimit:4;stroke-dasharray:none;stroke-opacity:1;paint-order:stroke fill markers"><tspan
   style="font-style:normal;font-variant:normal;font-weight:bold;font-stretch:normal;font-family:Loma;-inkscape-font-specification:'Loma Bold';stroke:#ffffff;stroke-width:3.64724;stroke-linejoin:miter;stroke-miterlimit:4;stroke-dasharray:none;stroke-opacity:1;paint-order:stroke fill markers"
   id="tspan71569">Node.js</tspan> Telescope</tspan></text>
    </g>
  </g>
  <style
     id="style59">.st0{fill:#fff}.st1{fill:#2e2e2e}</style>
</svg>
